<svg id="Ebene_1" data-name="Ebene 1" xmlns="http://www.w3.org/2000/svg" viewBox="0 0 289.68 231.2"><defs><style>.cls-1{fill:#425469;}.cls-2{fill:#00b3d5;}</style></defs><title>HoR-Logo_dunkelblau</title><path class="cls-1" d="M313.33,150.12H348.6v10H325.8v9.78h19.72v9.66H325.8v24.22H313.33Z" transform="translate(-227.89 -48.28)"/><path class="cls-1" d="M285.43,206H297.9v26.46l15.76-18.37h15.49L311.44,232.9l19.92,29H315.87L303,241.82l-5.09,5.37v14.74H285.43Z" transform="translate(-227.89 -48.28)"/><path class="cls-1" d="M369.07,229.53h12v39h22.33v10.73H369.07Z" transform="translate(-227.89 -48.28)"/><polygon class="cls-1" points="239.13 200.66 255.01 200.66 255.01 193.26 239.13 193.26 239.13 188.46 256.51 188.46 256.51 180.83 229.83 180.83 229.83 214.09 256.96 214.09 256.96 205.96 239.13 205.96 239.13 200.66"/><polygon class="cls-1" points="280.82 180.83 280.82 199.73 270.29 181.05 270.16 180.83 260.81 180.83 260.81 214.09 269.62 214.09 269.62 194.97 280.15 213.86 280.27 214.09 289.62 214.09 289.62 180.83 280.82 180.83"/><path class="cls-1" d="M424.47,248.94c0,5.46-3.76,5.73-4.52,5.73-2.86,0-4-1.3-4-4.51V229.09H406v21.66c0,8.46,3.28,12.24,10.65,12.24a10.81,10.81,0,0,0,8.07-3.81v3h9.65v-33.1h-9.91Z" transform="translate(-227.89 -48.28)"/><path class="cls-1" d="M390,182.67c-.36-4-1.65-9-6.13-10.08v-.12c4.42-1.7,6.6-6,6.6-10.55,0-8.49-7.31-11.85-14.74-11.85H354.26v29.12a25.69,25.69,0,0,1,11,3.16v-5.51h8.31c5.13,0,5.83,4.36,6.13,8.6.12,1.18-.11,16.41,4,18.34l10.38-.05C389.64,201.46,390.11,184.44,390,182.67Zm-15.57-14.32h-9.19v-9.49H374c3.07,0,5.54,1.41,5.54,4.54S377.72,168.35,374.42,168.35Z" transform="translate(-227.89 -48.28)"/><path class="cls-1" d="M376.82,211.27A24.57,24.57,0,0,1,371.1,222h16.74v39.93h12.47V222h34.07V211.27Z" transform="translate(-227.89 -48.28)"/><path class="cls-1" d="M352.32,229.83h-.18v19.12c0,5.46-3.76,5.73-4.52,5.73-2.86,0-4-1.3-4-4.51V229.09h-9.91v21.66c0,8.46,3.28,12.24,10.64,12.24a10.81,10.81,0,0,0,8.08-3.81v3H362v-34.1A27.18,27.18,0,0,1,352.32,229.83Z" transform="translate(-227.89 -48.28)"/><path class="cls-1" d="M471.41,211.07h4.71c3.36,0,5.37,2,5.37,5.43,0,3.59-2,5.53-5.37,5.53h-4.71Zm2.85,8.5h1.35c2.17,0,3-.89,3-3.08,0-2-1.08-3-3-3h-1.35Z" transform="translate(-227.89 -48.28)"/><path class="cls-1" d="M484.9,211.07h8.73v2.29h-5.88v1.91h5.37v2.21h-5.37v2.09h6V222H484.9Z" transform="translate(-227.89 -48.28)"/><path class="cls-1" d="M497.25,211.07h5.59c1.93,0,3.83.87,3.83,3.08A2.8,2.8,0,0,1,505,216.9v0c1.16.28,1.5,1.58,1.59,2.63A6,6,0,0,0,507,222h-2.82a5.2,5.2,0,0,1-.32-1.75c-.08-1.11-.27-2.24-1.6-2.24H500.1v4h-2.85Zm2.85,4.76h2.4a1.17,1.17,0,0,0,1.32-1.29c0-.82-.65-1.18-1.44-1.18H500.1Z" transform="translate(-227.89 -48.28)"/><path class="cls-2" d="M351.85,186.06c10.8,0,18.38,8,18.38,18.44s-7.58,18.38-18.38,18.38-18.3-7.92-18.3-18.38S341.06,186.06,351.85,186.06Zm0,28.1c5.3,0,7-5.23,7-9.66s-1.68-9.72-7-9.72-6.9,5.3-6.9,9.72S346.56,214.16,351.85,214.16Z" transform="translate(-227.89 -48.28)"/><path class="cls-1" d="M430.37,203.78H419.3V199h-.13a12.85,12.85,0,0,1-10.6,5.77c-10,0-12.87-5.77-12.87-14.89V160.57h11.4v28.59c0,4.63,2,6.24,5.63,6.24,2.48,0,6.23-1.61,6.23-7.78V160.21h11.41Z" transform="translate(-227.89 -48.28)"/><path class="cls-1" d="M436.48,150.12h18.37L463.1,182h.13l8.25-31.92h18.38v53.66H478.12V161.66H478L467.93,198h-9.52l-10.06-36.34h-.14v42.12H436.48Z" transform="translate(-227.89 -48.28)"/><path class="cls-1" d="M440.4,211.93h11V218h.13c1.67-4.4,5.53-6.73,10.4-6.73a12,12,0,0,1,2.66.26v10.33a15.84,15.84,0,0,0-4.33-.67c-5.6,0-8.53,3.87-8.53,8.2v25H440.4Z" transform="translate(-227.89 -48.28)"/><path class="cls-1" d="M413.82,275.66c.06,1.26.84,1.67,2,1.67.84,0,1.71-.3,1.71-1.1s-1.53-1.12-3.08-1.56-3.13-1.12-3.13-3.09c0-2.34,2.36-3.25,4.36-3.25s4.28,1,4.29,3.45h-2.79c.05-1-.86-1.29-1.72-1.29-.6,0-1.35.21-1.35.91s1.54,1,3.1,1.42,3.11,1.15,3.11,3.08c0,2.72-2.31,3.59-4.67,3.59s-4.63-1.08-4.65-3.83Z" transform="translate(-227.89 -48.28)"/><path class="cls-1" d="M431.94,271h-3.2v8.3H426V271h-3.19v-2.4h9.18Z" transform="translate(-227.89 -48.28)"/><path class="cls-1" d="M444.22,274.84c0,3.1-1.43,4.65-4.66,4.65s-4.67-1.55-4.67-4.65v-6.28h2.79V275c0,1.38.51,2.09,1.88,2.09s1.87-.71,1.87-2.09v-6.44h2.79Z" transform="translate(-227.89 -48.28)"/><path class="cls-1" d="M456.37,271h-3.2v8.3h-2.79V271h-3.19v-2.4h9.18Z" transform="translate(-227.89 -48.28)"/><path class="cls-1" d="M467.88,271h-3.19v8.3H461.9V271h-3.19v-2.4h9.17Z" transform="translate(-227.89 -48.28)"/><path class="cls-1" d="M480.79,279.26H479l-.16-1.17a3.66,3.66,0,0,1-3,1.4,5.59,5.59,0,0,1,0-11.16c2.22,0,4.59,1.18,4.85,3.87H477.9c-.09-.92-1-1.47-2.12-1.47-1.8,0-2.49,1.59-2.49,3.18s.69,3.18,2.49,3.18c1.38,0,2.31-.65,2.46-1.62h-1.95V273.4h4.5Z" transform="translate(-227.89 -48.28)"/><path class="cls-1" d="M487.28,268.56h2.84l4,10.7h-2.91l-.66-1.92h-3.73l-.68,1.92h-2.86Zm.18,6.71h2.43l-1.18-3.75h0Z" transform="translate(-227.89 -48.28)"/><path class="cls-1" d="M496.73,268.56h5.46c1.89,0,3.75.85,3.75,3a2.75,2.75,0,0,1-1.68,2.68v0c1.14.27,1.47,1.55,1.56,2.57,0,.45.07,2,.45,2.41h-2.76a5.46,5.46,0,0,1-.32-1.71c-.07-1.08-.25-2.19-1.55-2.19h-2.12v3.9h-2.79Zm2.79,4.64h2.34a1.15,1.15,0,0,0,1.29-1.26c0-.79-.63-1.15-1.41-1.15h-2.22Z" transform="translate(-227.89 -48.28)"/><path class="cls-1" d="M517.57,271h-3.19v8.3h-2.79V271H508.4v-2.4h9.17Z" transform="translate(-227.89 -48.28)"/><path class="cls-1" d="M243.56,216l-.12,4.47-6-.16-.12,4.34,6,.16-.12,4.47-15.31-.4.12-4.48,5.78.16.12-4.34-5.78-.15.12-4.48Z" transform="translate(-227.89 -48.28)"/><path class="cls-1" d="M238.12,196.2c2.6.37,4.5,1.28,5.68,2.75a7.31,7.31,0,0,1,1.28,5.83,7.2,7.2,0,0,1-2.77,5.13,7.92,7.92,0,0,1-5.89,1.13,8.29,8.29,0,0,1-5.65-2.79,7.5,7.5,0,0,1-1.27-5.92,7,7,0,0,1,2.74-5A8,8,0,0,1,238.12,196.2Zm-.4,4.52a7.35,7.35,0,0,0-3.71.2,2.38,2.38,0,0,0-1.47,2,2.48,2.48,0,0,0,.93,2.37,6.7,6.7,0,0,0,3.41,1.27,7,7,0,0,0,3.63-.25,2.32,2.32,0,0,0,1.52-1.93,2.45,2.45,0,0,0-.9-2.45A7.21,7.21,0,0,0,237.72,200.72Z" transform="translate(-227.89 -48.28)"/><path class="cls-1" d="M248.51,187.2a7.21,7.21,0,0,1-2.63,4.36,5.35,5.35,0,0,1-4.59.59l-9.46-2.39,1.1-4.35,9.35,2.37c1.44.36,2.33-.12,2.67-1.46a2,2,0,0,0-.19-1.59,2.35,2.35,0,0,0-1.47-.93l-9.35-2.37,1.1-4.35,9.46,2.4a5.32,5.32,0,0,1,3.69,2.73A7,7,0,0,1,248.51,187.2Z" transform="translate(-227.89 -48.28)"/><path class="cls-1" d="M249.91,168.45a1,1,0,0,0-.82,0,3.24,3.24,0,0,0-.9.7,16.1,16.1,0,0,0-1.24,1.49A7.4,7.4,0,0,1,244,173.2a4.39,4.39,0,0,1-3.23,0,3.91,3.91,0,0,1-2.58-2.72,7.73,7.73,0,0,1,.45-4.77,11.81,11.81,0,0,1,2.07-3.77l3,1.09a9.47,9.47,0,0,0-2.17,3.43,4.63,4.63,0,0,0-.37,1.79.86.86,0,0,0,.58.85.93.93,0,0,0,.75,0,3,3,0,0,0,.83-.69,21.42,21.42,0,0,0,1.4-1.74,7,7,0,0,1,2.83-2.38,4.41,4.41,0,0,1,3.19.07,4.12,4.12,0,0,1,2.81,2.85,8.68,8.68,0,0,1-.58,5.2,12.51,12.51,0,0,1-2.38,4.29l-3.07-1.11a12.33,12.33,0,0,0,1.48-1.87,10.57,10.57,0,0,0,1.13-2.22,5.08,5.08,0,0,0,.41-2.06A1,1,0,0,0,249.91,168.45Z" transform="translate(-227.89 -48.28)"/><path class="cls-1" d="M242.88,155.63l4.35-9.32L250,147.6l-2.46,5.26,2.63,1.22,2.17-4.66,2.78,1.29-2.18,4.67,3,1.39,2.45-5.27,2.75,1.28-4.35,9.32Z" transform="translate(-227.89 -48.28)"/><path class="cls-1" d="M268.18,126.13a8.43,8.43,0,0,1,3.94,4.93,7.31,7.31,0,0,1-1.37,5.81A7.2,7.2,0,0,1,266,140.3a8,8,0,0,1-5.8-1.53,8.33,8.33,0,0,1-3.89-5,7.53,7.53,0,0,1,1.41-5.89,7,7,0,0,1,4.65-3.34A7.92,7.92,0,0,1,268.18,126.13Zm-2.31,3.9a7.3,7.3,0,0,0-3.43-1.43,2.37,2.37,0,0,0-2.18,1.16,2.47,2.47,0,0,0-.19,2.53,6.73,6.73,0,0,0,2.53,2.62,6.92,6.92,0,0,0,3.38,1.35,2.34,2.34,0,0,0,2.21-1.09,2.46,2.46,0,0,0,.24-2.59A7.17,7.17,0,0,0,265.87,130Z" transform="translate(-227.89 -48.28)"/><path class="cls-1" d="M265.38,117.61l6.21-7.64,2.62,2.13-3.39,4.17,2.44,2,3.25-4,2.37,1.92-3.25,4,4.45,3.62-2.82,3.47Z" transform="translate(-227.89 -48.28)"/><path class="cls-1" d="M291.24,103.55l3.85,4.2-3.29,3L281.44,99.5l4.79-4.41A5.72,5.72,0,0,1,290,93.32,4.5,4.5,0,0,1,293.31,95a4.94,4.94,0,0,1,1.26,2.35,4.41,4.41,0,0,1-.21,2.46l7.33,1.9-3.46,3.18-6.21-2ZM290.08,98a1.52,1.52,0,0,0-2.42-.1l-.9.83,2.45,2.66.69-.64A1.72,1.72,0,0,0,290.08,98Z" transform="translate(-227.89 -48.28)"/><path class="cls-1" d="M295,87.56l8.2-6.21L305,83.79l-4.63,3.5,1.74,2.31,4.11-3.11,1.85,2.44L304,92l2,2.62,4.63-3.51,1.82,2.41-8.19,6.21Z" transform="translate(-227.89 -48.28)"/><path class="cls-1" d="M319.35,84.28a1,1,0,0,0-.66-.49,3.5,3.5,0,0,0-1.13,0,16.41,16.41,0,0,0-1.9.41,7.31,7.31,0,0,1-3.85.2,4.3,4.3,0,0,1-2.52-2,3.88,3.88,0,0,1-.37-3.73,7.8,7.8,0,0,1,3.3-3.49,12.1,12.1,0,0,1,4-1.69l1.69,2.71A9.51,9.51,0,0,0,314,77.56a4.64,4.64,0,0,0-1.4,1.18.88.88,0,0,0-.06,1,.94.94,0,0,0,.6.46,2.81,2.81,0,0,0,1.07,0c.47-.07,1.2-.24,2.18-.5a6.93,6.93,0,0,1,3.69-.14,4.44,4.44,0,0,1,2.47,2,4.17,4.17,0,0,1,.46,4,8.75,8.75,0,0,1-3.66,3.73,12.73,12.73,0,0,1-4.52,1.91l-1.73-2.77a11.7,11.7,0,0,0,2.31-.56,10.18,10.18,0,0,0,2.26-1.05,5.08,5.08,0,0,0,1.59-1.37A1,1,0,0,0,319.35,84.28Z" transform="translate(-227.89 -48.28)"/><path class="cls-1" d="M337.65,70.27c1.16,2.36,1.47,4.45.91,6.25a7.31,7.31,0,0,1-4.1,4.33,7.21,7.21,0,0,1-5.8.59,7.94,7.94,0,0,1-4.24-4.25,8.3,8.3,0,0,1-.86-6.24,7.47,7.47,0,0,1,4.18-4.37,7,7,0,0,1,5.69-.55A7.92,7.92,0,0,1,337.65,70.27Zm-4,2.21a7.16,7.16,0,0,0-2.24-3,2.34,2.34,0,0,0-2.46-.1,2.47,2.47,0,0,0-1.44,2.1,6.6,6.6,0,0,0,.86,3.53,7,7,0,0,0,2.24,2.87,2.36,2.36,0,0,0,2.46.17A2.45,2.45,0,0,0,334.61,76,7.2,7.2,0,0,0,333.68,72.48Z" transform="translate(-227.89 -48.28)"/><path class="cls-1" d="M350.91,73.82a7.23,7.23,0,0,1-5.09.28,5.43,5.43,0,0,1-3.07-3.47l-3.34-9.17,4.22-1.53,3.3,9.06c.51,1.4,1.41,1.86,2.7,1.39a1.94,1.94,0,0,0,1.21-1,2.34,2.34,0,0,0,0-1.74l-3.3-9.06L351.7,57,355,66.16a5.37,5.37,0,0,1-.18,4.59A7,7,0,0,1,350.91,73.82Z" transform="translate(-227.89 -48.28)"/><path class="cls-1" d="M364.52,63.4l1.38,5.53L361.56,70l-3.72-14.86,6.33-1.58a5.61,5.61,0,0,1,4.11.24,4.47,4.47,0,0,1,2.15,3,4.79,4.79,0,0,1,0,2.66,4.41,4.41,0,0,1-1.35,2.07l5.53,5.17L370,67.9l-4.48-4.75Zm1.66-5.48a1.51,1.51,0,0,0-2.08-1.23l-1.19.29.88,3.51.91-.23A1.73,1.73,0,0,0,366.18,57.92Z" transform="translate(-227.89 -48.28)"/><path class="cls-1" d="M383.93,65.56a7,7,0,0,1-5.64-1.13,8.06,8.06,0,0,1-2.66-5.37,9.37,9.37,0,0,1,.27-4.32,6.61,6.61,0,0,1,2.18-3.22,7.67,7.67,0,0,1,3.75-1.59,10.89,10.89,0,0,1,4.1,0l.52,3.43a6.47,6.47,0,0,0-3.16-.31,3.6,3.6,0,0,0-2.72,1.64,5.27,5.27,0,0,0-.49,3.58,5.2,5.2,0,0,0,1.42,3.07,3,3,0,0,0,2.68.82,7,7,0,0,0,1.69-.46,8.62,8.62,0,0,0,1.74-1l.5,3.34A9.83,9.83,0,0,1,383.93,65.56Z" transform="translate(-227.89 -48.28)"/><path class="cls-1" d="M391,49.06l10.26-.64.19,3-5.8.37.18,2.88,5.14-.32.19,3.06-5.14.32.21,3.28,5.8-.36.18,3-10.26.64Z" transform="translate(-227.89 -48.28)"/><path class="cls-1" d="M413.13,59.83a1,1,0,0,0-.27-.78,3.69,3.69,0,0,0-.95-.63,16.78,16.78,0,0,0-1.81-.71,7.42,7.42,0,0,1-3.32-2,4.38,4.38,0,0,1-1-3.08,3.92,3.92,0,0,1,1.77-3.31,7.79,7.79,0,0,1,4.67-1.07,12,12,0,0,1,4.23.78l-.09,3.2a9.56,9.56,0,0,0-3.94-1,4.91,4.91,0,0,0-1.82.21.89.89,0,0,0-.62.82.91.91,0,0,0,.25.71,2.75,2.75,0,0,0,.91.57c.43.2,1.13.46,2.09.79a6.91,6.91,0,0,1,3.15,1.93,4.42,4.42,0,0,1,.94,3,4.16,4.16,0,0,1-1.82,3.57A8.84,8.84,0,0,1,410.39,64a12.59,12.59,0,0,1-4.82-.91l.09-3.26a11.82,11.82,0,0,0,2.23.81,10.81,10.81,0,0,0,2.47.38,5.13,5.13,0,0,0,2.08-.26A1,1,0,0,0,413.13,59.83Z" transform="translate(-227.89 -48.28)"/><polygon class="cls-2" points="85.44 89.9 261.96 89.9 176.71 39.49 85.44 89.9"/></svg>